999
FreeCAD v0.21 33771 (Git)
  0
SECTION
  2
HEADER
  9
$ACADVER
  1
AC1014
  9
$ACADMAINTVER
 70
     9
  9
$DWGCODEPAGE
  3
ANSI_1252
  9
$TEXTSTYLE
  7
STANDARD
  9
$DIMSTYLE
  2
STANDARD
  9
$DIMTXSTY
  7
STANDARD
  9
$CMLSTYLE
  2
STANDARD
  9
$LUNITS
 70
2
  9
$INSUNITS
 70
4
  9
$PEXTMAX
 10
50
 20
50
 30
50
  9
$PEXTMIN
 10
0
 20
0
 30
0
  9
$HANDSEED
  5
FFFF
  0
ENDSEC
  0
SECTION
  2
CLASSES
  0
CLASS
  1
ACDBDICTIONARYWDFLT
  2
AcDbDictionaryWithDefault
  3
ObjectDBX Classes
 90
        0
280
     0
281
     0
  0
CLASS
  1
XRECORD
  2
AcDbXrecord
  3
ObjectDBX Classes
 90
        0
280
     0
281
     0
  0
CLASS
  1
LWPOLYLINE
  2
AcDbPolyline
  3
ObjectDBX Classes
 90
        0
280
     0
281
     1
  0
ENDSEC
  0
SECTION
  2
TABLES
  0
TABLE
  2
VPORT
  5
20
330
0
100
AcDbSymbolTable
 70
     1
  0
VPORT
  5
21
330
20
100
AcDbSymbolTableRecord
100
AcDbViewportTableRecord
  2
*ACTIVE
 70
     0
  0
ENDTAB
  0
TABLE
  2
LTYPE
  5
22
330
0
100
AcDbSymbolTable
 70
     1
  0
LTYPE
  5
23
330
21
100
AcDbSymbolTableRecord
100
AcDbLinetypeTableRecord
  2
BYBLOCK
 70
     0
  3

 72
    65
 73
     0
 40
0.0
  0
LTYPE
  5
24
330
21
100
AcDbSymbolTableRecord
100
AcDbLinetypeTableRecord
  2
BYLAYER
 70
     0
  3

 72
    65
 73
     0
 40
0.0
  0
LTYPE
  5
25
330
21
100
AcDbSymbolTableRecord
100
AcDbLinetypeTableRecord
  2
CONTINUOUS
 70
     0
  3
Solid line
 72
    65
 73
     0
 40
0.0
  0
ENDTAB
  0
TABLE
  2
LAYER
  5
B61
330
0
100
AcDbSymbolTable
 70
8
  0
LAYER
  5
B62
330
B61
100
AcDbSymbolTableRecord
100
AcDbLayerTableRecord
  2
0
 70
   0
 62
   7
  6
CONTINUOUS
  0
LAYER
  5
B63
330
B61
100
AcDbSymbolTableRecord
100
AcDbLayerTableRecord
  2
none
 70
    0
 62
    7
  6
CONTINUOUS
  0
LAYER
  5
B64
330
B61
100
AcDbSymbolTableRecord
100
AcDbLayerTableRecord
  2
Sketch
 70
    0
 62
    7
  6
CONTINUOUS
  0
LAYER
  5
B65
330
B61
100
AcDbSymbolTableRecord
100
AcDbLayerTableRecord
  2
Sketch001
 70
    0
 62
    7
  6
CONTINUOUS
  0
LAYER
  5
B66
330
B61
100
AcDbSymbolTableRecord
100
AcDbLayerTableRecord
  2
Sketch002
 70
    0
 62
    7
  6
CONTINUOUS
  0
LAYER
  5
B67
330
B61
100
AcDbSymbolTableRecord
100
AcDbLayerTableRecord
  2
Sketch003
 70
    0
 62
    7
  6
CONTINUOUS
  0
LAYER
  5
B68
330
B61
100
AcDbSymbolTableRecord
100
AcDbLayerTableRecord
  2
Sketch004
 70
    0
 62
    7
  6
CONTINUOUS
  0
LAYER
  5
B69
330
B61
100
AcDbSymbolTableRecord
100
AcDbLayerTableRecord
  2
Sketch005
 70
    0
 62
    7
  6
CONTINUOUS
  0
ENDTAB
  0
TABLE
  2
STYLE
  5
70
330
0
100
AcDbSymbolTable
 70
     2
  0
STYLE
  5
71
330
70
100
AcDbSymbolTableRecord
100
AcDbTextStyleTableRecord
  2
STANDARD
 70
     0
 40
0.0
 41
1.0
 50
0.0
 71
     0
 42
2.5
  3
arial.ttf
  4

  0
STYLE
  5
72
330
70
100
AcDbSymbolTableRecord
100
AcDbTextStyleTableRecord
  2
ANNOTATIVE
 70
     0
 40
0.0
 41
1.0
 50
0.0
 71
     0
 42
2.5
  3
arial.ttf
  4

  0
ENDTAB
  0
TABLE
  2
VIEW
  5
73
330
0
100
AcDbSymbolTable
 70
     0
  0
ENDTAB
  0
TABLE
  2
UCS
  5
74
330
0
100
AcDbSymbolTable
 70
     0
  0
ENDTAB
  0
TABLE
  2
APPID
  5
75
330
0
100
AcDbSymbolTable
 70
     2
  0
APPID
  5
76
330
75
100
AcDbSymbolTableRecord
100
AcDbRegAppTableRecord
  2
ACAD
 70
     0
  0
APPID
  5
77
330
75
100
AcDbSymbolTableRecord
100
AcDbRegAppTableRecord
  2
ACADANNOTATIVE
 70
     0
  0
ENDTAB
  0
TABLE
  2
DIMSTYLE
  5
78
330
0
100
AcDbSymbolTable
 70
     2
  0
DIMSTYLE
105
79
330
78
100
AcDbSymbolTableRecord
100
AcDbDimStyleTableRecord
  2
STANDARD
 70
     0
  3

  4

  5

  6

  7

 40
0.0
 41
2.5
 42
0.625
 43
3.75
 44
1.25
 45
0.0
 46
0.0
 47
0.0
 48
0.0
140
2.5
141
2.5
142
0.0
143
0.03937007874016
144
1.0
145
0.0
146
1.0
147
0.625
 71
     0
 72
     0
 73
     0
 74
     0
 75
     0
 76
     0
 77
     1
 78
     8
170
     0
171
     3
172
     1
173
     0
174
     0
175
     0
176
     0
177
     0
178
     0
270
     2
271
     2
272
     2
273
     2
274
     3
340
71
275
     0
280
     0
281
     0
282
     0
283
     0
284
     8
285
     0
286
     0
287
     3
288
     0
  0
ENDTAB
  0
TABLE
  2
BLOCK_RECORD
  5
A01
330
0
100
AcDbSymbolTable
  70
5
  0
BLOCK_RECORD
  5
A02
330
A01
100
AcDbSymbolTableRecord
100
AcDbBlockTableRecord
  2
*MODEL_SPACE
  0
BLOCK_RECORD
  5
A03
330
A01
100
AcDbSymbolTableRecord
100
AcDbBlockTableRecord
  2
*PAPER_SPACE
  0
ENDTAB
  0
ENDSEC
  0
SECTION
  2
BLOCKS
  0
BLOCK
  5
A04
330
A02
100
AcDbEntity
  8
0
100
AcDbBlockBegin
  2
*MODEL_SPACE
 70
   0
 10
0
 20
0
 30
0
  3
*MODEL_SPACE
  1
 
  0
ENDBLK
  5
A05
330
A02
100
AcDbEntity
  8
0
100
AcDbBlockEnd
  0
BLOCK
  5
A06
330
A03
100
AcDbEntity
 67
1
  8
0
100
AcDbBlockBegin
  2
*PAPER_SPACE
 70
   0
 10
0
 20
0
 30
0
  3
*PAPER_SPACE
  1
 
  0
ENDBLK
  5
A07
330
A03
100
AcDbEntity
 67
    1
  8
0
100
AcDbBlockEnd
  0
ENDSEC
  0
SECTION
  2
ENTITIES
  0
CIRCLE
  5
A08
330
A02
100
AcDbEntity
  8
Sketch
100
AcDbCircle
 10
-40.6472
 20
34.2766
 40
2.5
  0
CIRCLE
  5
A09
330
A02
100
AcDbEntity
  8
Sketch001
100
AcDbCircle
 10
52.1
 20
41.8516
 40
2.5
  0
CIRCLE
  5
A0A
330
A02
100
AcDbEntity
  8
Sketch002
100
AcDbCircle
 10
21.5712
 20
-3.79347
 40
2.5
  0
CIRCLE
  5
A0B
330
A02
100
AcDbEntity
  8
Sketch003
100
AcDbCircle
 10
21.5702
 20
-41.9093
 40
2.5
  0
CIRCLE
  5
A0C
330
A02
100
AcDbEntity
  8
Sketch004
100
AcDbCircle
 10
-40.6248
 20
-41.9271
 40
2.5
  0
LINE
  5
A0D
330
A02
100
AcDbEntity
  8
Sketch005
100
AcDbLine
 10
57.3658
 20
62.868
 30
0
 11
57.5228
 21
62.861
 31
0
  0
LINE
  5
A0E
330
A02
100
AcDbEntity
  8
Sketch005
100
AcDbLine
 10
57.5228
 20
62.861
 30
0
 11
57.6788
 21
62.843
 31
0
  0
LINE
  5
A0F
330
A02
100
AcDbEntity
  8
Sketch005
100
AcDbLine
 10
57.6788
 20
62.843
 30
0
 11
57.8328
 21
62.812
 31
0
  0
LINE
  5
A10
330
A02
100
AcDbEntity
  8
Sketch005
100
AcDbLine
 10
57.8328
 20
62.812
 30
0
 11
57.9848
 21
62.77
 31
0
  0
LINE
  5
A11
330
A02
100
AcDbEntity
  8
Sketch005
100
AcDbLine
 10
57.9848
 20
62.77
 30
0
 11
58.1308
 21
62.715
 31
0
  0
LINE
  5
A12
330
A02
100
AcDbEntity
  8
Sketch005
100
AcDbLine
 10
58.1308
 20
62.715
 30
0
 11
58.2738
 21
62.65
 31
0
  0
LINE
  5
A13
330
A02
100
AcDbEntity
  8
Sketch005
100
AcDbLine
 10
58.2738
 20
62.65
 30
0
 11
58.4118
 21
62.573
 31
0
  0
LINE
  5
A14
330
A02
100
AcDbEntity
  8
Sketch005
100
AcDbLine
 10
58.4118
 20
62.573
 30
0
 11
58.5428
 21
62.486
 31
0
  0
LINE
  5
A15
330
A02
100
AcDbEntity
  8
Sketch005
100
AcDbLine
 10
58.5428
 20
62.486
 30
0
 11
58.6648
 21
62.388
 31
0
  0
LINE
  5
A16
330
A02
100
AcDbEntity
  8
Sketch005
100
AcDbLine
 10
58.6648
 20
62.388
 30
0
 11
58.7798
 21
62.282
 31
0
  0
LINE
  5
A17
330
A02
100
AcDbEntity
  8
Sketch005
100
AcDbLine
 10
58.7798
 20
62.282
 30
0
 11
58.8868
 21
62.166
 31
0
  0
LINE
  5
A18
330
A02
100
AcDbEntity
  8
Sketch005
100
AcDbLine
 10
58.8868
 20
62.166
 30
0
 11
58.9838
 21
62.044
 31
0
  0
LINE
  5
A19
330
A02
100
AcDbEntity
  8
Sketch005
100
AcDbLine
 10
58.9838
 20
62.044
 30
0
 11
59.0718
 21
61.913
 31
0
  0
LINE
  5
A1A
330
A02
100
AcDbEntity
  8
Sketch005
100
AcDbLine
 10
59.0718
 20
61.913
 30
0
 11
59.1478
 21
61.775
 31
0
  0
LINE
  5
A1B
330
A02
100
AcDbEntity
  8
Sketch005
100
AcDbLine
 10
59.1478
 20
61.775
 30
0
 11
59.2138
 21
61.633
 31
0
  0
LINE
  5
A1C
330
A02
100
AcDbEntity
  8
Sketch005
100
AcDbLine
 10
59.2138
 20
61.633
 30
0
 11
59.2688
 21
61.487
 31
0
  0
LINE
  5
A1D
330
A02
100
AcDbEntity
  8
Sketch005
100
AcDbLine
 10
59.2688
 20
61.487
 30
0
 11
59.3118
 21
61.334
 31
0
  0
LINE
  5
A1E
330
A02
100
AcDbEntity
  8
Sketch005
100
AcDbLine
 10
59.3118
 20
61.334
 30
0
 11
59.3418
 21
61.181
 31
0
  0
LINE
  5
A1F
330
A02
100
AcDbEntity
  8
Sketch005
100
AcDbLine
 10
59.3418
 20
61.181
 30
0
 11
59.3598
 21
61.024
 31
0
  0
LINE
  5
A20
330
A02
100
AcDbEntity
  8
Sketch005
100
AcDbLine
 10
59.3598
 20
61.024
 30
0
 11
59.3668
 21
60.867
 31
0
  0
LINE
  5
A21
330
A02
100
AcDbEntity
  8
Sketch005
100
AcDbLine
 10
59.3668
 20
60.867
 30
0
 11
59.3668
 21
-58.9592
 31
0
  0
LINE
  5
A22
330
A02
100
AcDbEntity
  8
Sketch005
100
AcDbLine
 10
59.3668
 20
-58.9592
 30
0
 11
59.3598
 21
-59.1149
 31
0
  0
LINE
  5
A23
330
A02
100
AcDbEntity
  8
Sketch005
100
AcDbLine
 10
59.3598
 20
-59.1149
 30
0
 11
59.3418
 21
-59.2706
 31
0
  0
LINE
  5
A24
330
A02
100
AcDbEntity
  8
Sketch005
100
AcDbLine
 10
59.3418
 20
-59.2706
 30
0
 11
59.3118
 21
-59.4249
 31
0
  0
LINE
  5
A25
330
A02
100
AcDbEntity
  8
Sketch005
100
AcDbLine
 10
59.3118
 20
-59.4249
 30
0
 11
59.2688
 21
-59.5765
 31
0
  0
LINE
  5
A26
330
A02
100
AcDbEntity
  8
Sketch005
100
AcDbLine
 10
59.2688
 20
-59.5765
 30
0
 11
59.2138
 21
-59.724
 31
0
  0
LINE
  5
A27
330
A02
100
AcDbEntity
  8
Sketch005
100
AcDbLine
 10
59.2138
 20
-59.724
 30
0
 11
59.1478
 21
-59.8659
 31
0
  0
LINE
  5
A28
330
A02
100
AcDbEntity
  8
Sketch005
100
AcDbLine
 10
59.1478
 20
-59.8659
 30
0
 11
59.0718
 21
-60.0023
 31
0
  0
LINE
  5
A29
330
A02
100
AcDbEntity
  8
Sketch005
100
AcDbLine
 10
59.0718
 20
-60.0023
 30
0
 11
58.9838
 21
-60.1332
 31
0
  0
LINE
  5
A2A
330
A02
100
AcDbEntity
  8
Sketch005
100
AcDbLine
 10
58.9838
 20
-60.1332
 30
0
 11
58.8868
 21
-60.2573
 31
0
  0
LINE
  5
A2B
330
A02
100
AcDbEntity
  8
Sketch005
100
AcDbLine
 10
58.8868
 20
-60.2573
 30
0
 11
58.7798
 21
-60.373
 31
0
  0
LINE
  5
A2C
330
A02
100
AcDbEntity
  8
Sketch005
100
AcDbLine
 10
58.7798
 20
-60.373
 30
0
 11
58.6648
 21
-60.4791
 31
0
  0
LINE
  5
A2D
330
A02
100
AcDbEntity
  8
Sketch005
100
AcDbLine
 10
58.6648
 20
-60.4791
 30
0
 11
58.5428
 21
-60.5756
 31
0
  0
LINE
  5
A2E
330
A02
100
AcDbEntity
  8
Sketch005
100
AcDbLine
 10
58.5428
 20
-60.5756
 30
0
 11
58.4118
 21
-60.6638
 31
0
  0
LINE
  5
A2F
330
A02
100
AcDbEntity
  8
Sketch005
100
AcDbLine
 10
58.4118
 20
-60.6638
 30
0
 11
58.2738
 21
-60.741
 31
0
  0
LINE
  5
A30
330
A02
100
AcDbEntity
  8
Sketch005
100
AcDbLine
 10
58.2738
 20
-60.741
 30
0
 11
58.1308
 21
-60.8057
 31
0
  0
LINE
  5
A31
330
A02
100
AcDbEntity
  8
Sketch005
100
AcDbLine
 10
58.1308
 20
-60.8057
 30
0
 11
57.9848
 21
-60.8608
 31
0
  0
LINE
  5
A32
330
A02
100
AcDbEntity
  8
Sketch005
100
AcDbLine
 10
57.9848
 20
-60.8608
 30
0
 11
57.8328
 21
-60.9022
 31
0
  0
LINE
  5
A33
330
A02
100
AcDbEntity
  8
Sketch005
100
AcDbLine
 10
57.8328
 20
-60.9022
 30
0
 11
57.6788
 21
-60.9325
 31
0
  0
LINE
  5
A34
330
A02
100
AcDbEntity
  8
Sketch005
100
AcDbLine
 10
57.6788
 20
-60.9325
 30
0
 11
57.5228
 21
-60.9504
 31
0
  0
LINE
  5
A35
330
A02
100
AcDbEntity
  8
Sketch005
100
AcDbLine
 10
57.5228
 20
-60.9504
 30
0
 11
57.3658
 21
-60.9587
 31
0
  0
LINE
  5
A36
330
A02
100
AcDbEntity
  8
Sketch005
100
AcDbLine
 10
57.3658
 20
-60.9587
 30
0
 11
-57.6976
 21
-60.9587
 31
0
  0
LINE
  5
A37
330
A02
100
AcDbEntity
  8
Sketch005
100
AcDbLine
 10
-57.6976
 20
-60.9587
 30
0
 11
-57.8533
 21
-60.9504
 31
0
  0
LINE
  5
A38
330
A02
100
AcDbEntity
  8
Sketch005
100
AcDbLine
 10
-57.8533
 20
-60.9504
 30
0
 11
-58.0104
 21
-60.9325
 31
0
  0
LINE
  5
A39
330
A02
100
AcDbEntity
  8
Sketch005
100
AcDbLine
 10
-58.0104
 20
-60.9325
 30
0
 11
-58.1634
 21
-60.9022
 31
0
  0
LINE
  5
A3A
330
A02
100
AcDbEntity
  8
Sketch005
100
AcDbLine
 10
-58.1634
 20
-60.9022
 30
0
 11
-58.3164
 21
-60.8608
 31
0
  0
LINE
  5
A3B
330
A02
100
AcDbEntity
  8
Sketch005
100
AcDbLine
 10
-58.3164
 20
-60.8608
 30
0
 11
-58.4624
 21
-60.8057
 31
0
  0
LINE
  5
A3C
330
A02
100
AcDbEntity
  8
Sketch005
100
AcDbLine
 10
-58.4624
 20
-60.8057
 30
0
 11
-58.6044
 21
-60.741
 31
0
  0
LINE
  5
A3D
330
A02
100
AcDbEntity
  8
Sketch005
100
AcDbLine
 10
-58.6044
 20
-60.741
 30
0
 11
-58.7422
 21
-60.6638
 31
0
  0
LINE
  5
A3E
330
A02
100
AcDbEntity
  8
Sketch005
100
AcDbLine
 10
-58.7422
 20
-60.6638
 30
0
 11
-58.8731
 21
-60.5756
 31
0
  0
LINE
  5
A3F
330
A02
100
AcDbEntity
  8
Sketch005
100
AcDbLine
 10
-58.8731
 20
-60.5756
 30
0
 11
-58.9957
 21
-60.4791
 31
0
  0
LINE
  5
A40
330
A02
100
AcDbEntity
  8
Sketch005
100
AcDbLine
 10
-58.9957
 20
-60.4791
 30
0
 11
-59.1115
 21
-60.373
 31
0
  0
LINE
  5
A41
330
A02
100
AcDbEntity
  8
Sketch005
100
AcDbLine
 10
-59.1115
 20
-60.373
 30
0
 11
-59.2176
 21
-60.2573
 31
0
  0
LINE
  5
A42
330
A02
100
AcDbEntity
  8
Sketch005
100
AcDbLine
 10
-59.2176
 20
-60.2573
 30
0
 11
-59.3154
 21
-60.1332
 31
0
  0
LINE
  5
A43
330
A02
100
AcDbEntity
  8
Sketch005
100
AcDbLine
 10
-59.3154
 20
-60.1332
 30
0
 11
-59.4023
 21
-60.0023
 31
0
  0
LINE
  5
A44
330
A02
100
AcDbEntity
  8
Sketch005
100
AcDbLine
 10
-59.4023
 20
-60.0023
 30
0
 11
-59.4794
 21
-59.8659
 31
0
  0
LINE
  5
A45
330
A02
100
AcDbEntity
  8
Sketch005
100
AcDbLine
 10
-59.4794
 20
-59.8659
 30
0
 11
-59.5442
 21
-59.724
 31
0
  0
LINE
  5
A46
330
A02
100
AcDbEntity
  8
Sketch005
100
AcDbLine
 10
-59.5442
 20
-59.724
 30
0
 11
-59.5993
 21
-59.5765
 31
0
  0
LINE
  5
A47
330
A02
100
AcDbEntity
  8
Sketch005
100
AcDbLine
 10
-59.5993
 20
-59.5765
 30
0
 11
-59.642
 21
-59.4249
 31
0
  0
LINE
  5
A48
330
A02
100
AcDbEntity
  8
Sketch005
100
AcDbLine
 10
-59.642
 20
-59.4249
 30
0
 11
-59.6724
 21
-59.2706
 31
0
  0
LINE
  5
A49
330
A02
100
AcDbEntity
  8
Sketch005
100
AcDbLine
 10
-59.6724
 20
-59.2706
 30
0
 11
-59.6903
 21
-59.1149
 31
0
  0
LINE
  5
A4A
330
A02
100
AcDbEntity
  8
Sketch005
100
AcDbLine
 10
-59.6903
 20
-59.1149
 30
0
 11
-59.6972
 21
-58.9592
 31
0
  0
LINE
  5
A4B
330
A02
100
AcDbEntity
  8
Sketch005
100
AcDbLine
 10
-59.6972
 20
-58.9592
 30
0
 11
-59.6972
 21
60.867
 31
0
  0
LINE
  5
A4C
330
A02
100
AcDbEntity
  8
Sketch005
100
AcDbLine
 10
-59.6972
 20
60.867
 30
0
 11
-59.6903
 21
61.024
 31
0
  0
LINE
  5
A4D
330
A02
100
AcDbEntity
  8
Sketch005
100
AcDbLine
 10
-59.6903
 20
61.024
 30
0
 11
-59.6724
 21
61.181
 31
0
  0
LINE
  5
A4E
330
A02
100
AcDbEntity
  8
Sketch005
100
AcDbLine
 10
-59.6724
 20
61.181
 30
0
 11
-59.642
 21
61.334
 31
0
  0
LINE
  5
A4F
330
A02
100
AcDbEntity
  8
Sketch005
100
AcDbLine
 10
-59.642
 20
61.334
 30
0
 11
-59.5993
 21
61.487
 31
0
  0
LINE
  5
A50
330
A02
100
AcDbEntity
  8
Sketch005
100
AcDbLine
 10
-59.5993
 20
61.487
 30
0
 11
-59.5442
 21
61.633
 31
0
  0
LINE
  5
A51
330
A02
100
AcDbEntity
  8
Sketch005
100
AcDbLine
 10
-59.5442
 20
61.633
 30
0
 11
-59.4794
 21
61.775
 31
0
  0
LINE
  5
A52
330
A02
100
AcDbEntity
  8
Sketch005
100
AcDbLine
 10
-59.4794
 20
61.775
 30
0
 11
-59.4023
 21
61.913
 31
0
  0
LINE
  5
A53
330
A02
100
AcDbEntity
  8
Sketch005
100
AcDbLine
 10
-59.4023
 20
61.913
 30
0
 11
-59.3154
 21
62.044
 31
0
  0
LINE
  5
A54
330
A02
100
AcDbEntity
  8
Sketch005
100
AcDbLine
 10
-59.3154
 20
62.044
 30
0
 11
-59.2176
 21
62.166
 31
0
  0
LINE
  5
A55
330
A02
100
AcDbEntity
  8
Sketch005
100
AcDbLine
 10
-59.2176
 20
62.166
 30
0
 11
-59.1115
 21
62.282
 31
0
  0
LINE
  5
A56
330
A02
100
AcDbEntity
  8
Sketch005
100
AcDbLine
 10
-59.1115
 20
62.282
 30
0
 11
-58.9957
 21
62.388
 31
0
  0
LINE
  5
A57
330
A02
100
AcDbEntity
  8
Sketch005
100
AcDbLine
 10
-58.9957
 20
62.388
 30
0
 11
-58.8731
 21
62.486
 31
0
  0
LINE
  5
A58
330
A02
100
AcDbEntity
  8
Sketch005
100
AcDbLine
 10
-58.8731
 20
62.486
 30
0
 11
-58.7422
 21
62.573
 31
0
  0
LINE
  5
A59
330
A02
100
AcDbEntity
  8
Sketch005
100
AcDbLine
 10
-58.7422
 20
62.573
 30
0
 11
-58.6044
 21
62.65
 31
0
  0
LINE
  5
A5A
330
A02
100
AcDbEntity
  8
Sketch005
100
AcDbLine
 10
-58.6044
 20
62.65
 30
0
 11
-58.4624
 21
62.715
 31
0
  0
LINE
  5
A5B
330
A02
100
AcDbEntity
  8
Sketch005
100
AcDbLine
 10
-58.4624
 20
62.715
 30
0
 11
-58.3164
 21
62.77
 31
0
  0
LINE
  5
A5C
330
A02
100
AcDbEntity
  8
Sketch005
100
AcDbLine
 10
-58.3164
 20
62.77
 30
0
 11
-58.1634
 21
62.812
 31
0
  0
LINE
  5
A5D
330
A02
100
AcDbEntity
  8
Sketch005
100
AcDbLine
 10
-58.1634
 20
62.812
 30
0
 11
-58.0104
 21
62.843
 31
0
  0
LINE
  5
A5E
330
A02
100
AcDbEntity
  8
Sketch005
100
AcDbLine
 10
-58.0104
 20
62.843
 30
0
 11
-57.8533
 21
62.861
 31
0
  0
LINE
  5
A5F
330
A02
100
AcDbEntity
  8
Sketch005
100
AcDbLine
 10
-57.8533
 20
62.861
 30
0
 11
-57.6976
 21
62.868
 31
0
  0
LINE
  5
A60
330
A02
100
AcDbEntity
  8
Sketch005
100
AcDbLine
 10
-57.6976
 20
62.868
 30
0
 11
57.3658
 21
62.868
 31
0
  0
LINE
  5
A61
330
A02
100
AcDbEntity
  8
Sketch005
100
AcDbLine
 10
-4.78505
 20
-44.4333
 30
0
 11
-4.78505
 21
-49.1324
 31
0
  0
LINE
  5
A62
330
A02
100
AcDbEntity
  8
Sketch005
100
AcDbLine
 10
-4.78505
 20
-49.1324
 30
0
 11
-6.30935
 21
-49.1324
 31
0
  0
LINE
  5
A63
330
A02
100
AcDbEntity
  8
Sketch005
100
AcDbLine
 10
-6.30935
 20
-49.1324
 30
0
 11
-6.30935
 21
-45.9022
 31
0
  0
LINE
  5
A64
330
A02
100
AcDbEntity
  8
Sketch005
100
AcDbLine
 10
-6.30935
 20
-45.9022
 30
0
 11
-13.0601
 21
-45.9022
 31
0
  0
LINE
  5
A65
330
A02
100
AcDbEntity
  8
Sketch005
100
AcDbLine
 10
-13.0601
 20
-45.9022
 30
0
 11
-13.0601
 21
-49.1324
 31
0
  0
LINE
  5
A66
330
A02
100
AcDbEntity
  8
Sketch005
100
AcDbLine
 10
-13.0601
 20
-49.1324
 30
0
 11
-13.8842
 21
-49.1324
 31
0
  0
LINE
  5
A67
330
A02
100
AcDbEntity
  8
Sketch005
100
AcDbLine
 10
-13.8842
 20
-49.1324
 30
0
 11
-13.8842
 21
-51.9325
 31
0
  0
LINE
  5
A68
330
A02
100
AcDbEntity
  8
Sketch005
100
AcDbLine
 10
-13.8842
 20
-51.9325
 30
0
 11
-13.0601
 21
-51.9325
 31
0
  0
LINE
  5
A69
330
A02
100
AcDbEntity
  8
Sketch005
100
AcDbLine
 10
-13.0601
 20
-51.9325
 30
0
 11
-13.0601
 21
-58.2026
 31
0
  0
LINE
  5
A6A
330
A02
100
AcDbEntity
  8
Sketch005
100
AcDbLine
 10
-13.0601
 20
-58.2026
 30
0
 11
-11.335
 21
-58.2026
 31
0
  0
LINE
  5
A6B
330
A02
100
AcDbEntity
  8
Sketch005
100
AcDbLine
 10
-11.335
 20
-58.2026
 30
0
 11
-11.335
 21
-59.4029
 31
0
  0
LINE
  5
A6C
330
A02
100
AcDbEntity
  8
Sketch005
100
AcDbLine
 10
-11.335
 20
-59.4029
 30
0
 11
-8.03445
 21
-59.4029
 31
0
  0
LINE
  5
A6D
330
A02
100
AcDbEntity
  8
Sketch005
100
AcDbLine
 10
-8.03445
 20
-59.4029
 30
0
 11
-8.03445
 21
-58.2026
 31
0
  0
LINE
  5
A6E
330
A02
100
AcDbEntity
  8
Sketch005
100
AcDbLine
 10
-8.03445
 20
-58.2026
 30
0
 11
-6.30935
 21
-58.2026
 31
0
  0
LINE
  5
A6F
330
A02
100
AcDbEntity
  8
Sketch005
100
AcDbLine
 10
-6.30935
 20
-58.2026
 30
0
 11
-6.30935
 21
-53.7323
 31
0
  0
LINE
  5
A70
330
A02
100
AcDbEntity
  8
Sketch005
100
AcDbLine
 10
-6.30935
 20
-53.7323
 30
0
 11
-4.78505
 21
-53.7323
 31
0
  0
LINE
  5
A71
330
A02
100
AcDbEntity
  8
Sketch005
100
AcDbLine
 10
-4.78505
 20
-53.7323
 30
0
 11
-4.78505
 21
-58.4327
 31
0
  0
LINE
  5
A72
330
A02
100
AcDbEntity
  8
Sketch005
100
AcDbLine
 10
-4.78505
 20
-58.4327
 30
0
 11
9.21565
 21
-58.4327
 31
0
  0
LINE
  5
A73
330
A02
100
AcDbEntity
  8
Sketch005
100
AcDbLine
 10
9.21565
 20
-58.4327
 30
0
 11
9.21565
 21
-53.7323
 31
0
  0
LINE
  5
A74
330
A02
100
AcDbEntity
  8
Sketch005
100
AcDbLine
 10
9.21565
 20
-53.7323
 30
0
 11
10.7401
 21
-53.7323
 31
0
  0
LINE
  5
A75
330
A02
100
AcDbEntity
  8
Sketch005
100
AcDbLine
 10
10.7401
 20
-53.7323
 30
0
 11
10.7401
 21
-58.2026
 31
0
  0
LINE
  5
A76
330
A02
100
AcDbEntity
  8
Sketch005
100
AcDbLine
 10
10.7401
 20
-58.2026
 30
0
 11
12.4652
 21
-58.2026
 31
0
  0
LINE
  5
A77
330
A02
100
AcDbEntity
  8
Sketch005
100
AcDbLine
 10
12.4652
 20
-58.2026
 30
0
 11
12.4652
 21
-59.4029
 31
0
  0
LINE
  5
A78
330
A02
100
AcDbEntity
  8
Sketch005
100
AcDbLine
 10
12.4652
 20
-59.4029
 30
0
 11
15.7657
 21
-59.4029
 31
0
  0
LINE
  5
A79
330
A02
100
AcDbEntity
  8
Sketch005
100
AcDbLine
 10
15.7657
 20
-59.4029
 30
0
 11
15.7657
 21
-58.2026
 31
0
  0
LINE
  5
A7A
330
A02
100
AcDbEntity
  8
Sketch005
100
AcDbLine
 10
15.7657
 20
-58.2026
 30
0
 11
17.4908
 21
-58.2026
 31
0
  0
LINE
  5
A7B
330
A02
100
AcDbEntity
  8
Sketch005
100
AcDbLine
 10
17.4908
 20
-58.2026
 30
0
 11
17.4908
 21
-51.9325
 31
0
  0
LINE
  5
A7C
330
A02
100
AcDbEntity
  8
Sketch005
100
AcDbLine
 10
17.4908
 20
-51.9325
 30
0
 11
18.3149
 21
-51.9325
 31
0
  0
LINE
  5
A7D
330
A02
100
AcDbEntity
  8
Sketch005
100
AcDbLine
 10
18.3149
 20
-51.9325
 30
0
 11
18.3149
 21
-49.1324
 31
0
  0
LINE
  5
A7E
330
A02
100
AcDbEntity
  8
Sketch005
100
AcDbLine
 10
18.3149
 20
-49.1324
 30
0
 11
17.4908
 21
-49.1324
 31
0
  0
LINE
  5
A7F
330
A02
100
AcDbEntity
  8
Sketch005
100
AcDbLine
 10
17.4908
 20
-49.1324
 30
0
 11
17.4908
 21
-45.9022
 31
0
  0
LINE
  5
A80
330
A02
100
AcDbEntity
  8
Sketch005
100
AcDbLine
 10
17.4908
 20
-45.9022
 30
0
 11
10.7401
 21
-45.9022
 31
0
  0
LINE
  5
A81
330
A02
100
AcDbEntity
  8
Sketch005
100
AcDbLine
 10
10.7401
 20
-45.9022
 30
0
 11
10.7401
 21
-49.1324
 31
0
  0
LINE
  5
A82
330
A02
100
AcDbEntity
  8
Sketch005
100
AcDbLine
 10
10.7401
 20
-49.1324
 30
0
 11
9.21565
 21
-49.1324
 31
0
  0
LINE
  5
A83
330
A02
100
AcDbEntity
  8
Sketch005
100
AcDbLine
 10
9.21565
 20
-49.1324
 30
0
 11
9.21565
 21
-44.4333
 31
0
  0
LINE
  5
A84
330
A02
100
AcDbEntity
  8
Sketch005
100
AcDbLine
 10
9.21565
 20
-44.4333
 30
0
 11
-4.78505
 21
-44.4333
 31
0
  0
LINE
  5
A85
330
A02
100
AcDbEntity
  8
Sketch005
100
AcDbLine
 10
-57.1712
 20
-44.4333
 30
0
 11
-43.1717
 21
-44.4333
 31
0
  0
LINE
  5
A86
330
A02
100
AcDbEntity
  8
Sketch005
100
AcDbLine
 10
-43.1717
 20
-44.4333
 30
0
 11
-43.1717
 21
-58.4327
 31
0
  0
LINE
  5
A87
330
A02
100
AcDbEntity
  8
Sketch005
100
AcDbLine
 10
-43.1717
 20
-58.4327
 30
0
 11
-57.1712
 21
-58.4327
 31
0
  0
LINE
  5
A88
330
A02
100
AcDbEntity
  8
Sketch005
100
AcDbLine
 10
-57.1712
 20
-58.4327
 30
0
 11
-57.1712
 21
-44.4333
 31
0
  0
LINE
  5
A89
330
A02
100
AcDbEntity
  8
Sketch005
100
AcDbLine
 10
-38.1212
 20
-44.4333
 30
0
 11
-24.1218
 21
-44.4333
 31
0
  0
LINE
  5
A8A
330
A02
100
AcDbEntity
  8
Sketch005
100
AcDbLine
 10
-24.1218
 20
-44.4333
 30
0
 11
-24.1218
 21
-58.4327
 31
0
  0
LINE
  5
A8B
330
A02
100
AcDbEntity
  8
Sketch005
100
AcDbLine
 10
-24.1218
 20
-58.4327
 30
0
 11
-38.1212
 21
-58.4327
 31
0
  0
LINE
  5
A8C
330
A02
100
AcDbEntity
  8
Sketch005
100
AcDbLine
 10
-38.1212
 20
-58.4327
 30
0
 11
-38.1212
 21
-44.4333
 31
0
  0
LINE
  5
A8D
330
A02
100
AcDbEntity
  8
Sketch005
100
AcDbLine
 10
23.79
 20
-44.4333
 30
0
 11
37.7907
 21
-44.4333
 31
0
  0
LINE
  5
A8E
330
A02
100
AcDbEntity
  8
Sketch005
100
AcDbLine
 10
37.7907
 20
-44.4333
 30
0
 11
37.7907
 21
-58.4327
 31
0
  0
LINE
  5
A8F
330
A02
100
AcDbEntity
  8
Sketch005
100
AcDbLine
 10
37.7907
 20
-58.4327
 30
0
 11
23.79
 21
-58.4327
 31
0
  0
LINE
  5
A90
330
A02
100
AcDbEntity
  8
Sketch005
100
AcDbLine
 10
23.79
 20
-58.4327
 30
0
 11
23.79
 21
-44.4333
 31
0
  0
LINE
  5
A91
330
A02
100
AcDbEntity
  8
Sketch005
100
AcDbLine
 10
49.3408
 20
-25.8078
 30
0
 11
49.3408
 21
-26.6331
 31
0
  0
LINE
  5
A92
330
A02
100
AcDbEntity
  8
Sketch005
100
AcDbLine
 10
49.3408
 20
-26.6331
 30
0
 11
43.0698
 21
-26.6331
 31
0
  0
LINE
  5
A93
330
A02
100
AcDbEntity
  8
Sketch005
100
AcDbLine
 10
43.0698
 20
-26.6331
 30
0
 11
43.0698
 21
-28.3571
 31
0
  0
LINE
  5
A94
330
A02
100
AcDbEntity
  8
Sketch005
100
AcDbLine
 10
43.0698
 20
-28.3571
 30
0
 11
41.8698
 21
-28.3571
 31
0
  0
LINE
  5
A95
330
A02
100
AcDbEntity
  8
Sketch005
100
AcDbLine
 10
41.8698
 20
-28.3571
 30
0
 11
41.8698
 21
-31.6574
 31
0
  0
LINE
  5
A96
330
A02
100
AcDbEntity
  8
Sketch005
100
AcDbLine
 10
41.8698
 20
-31.6574
 30
0
 11
43.0698
 21
-31.6574
 31
0
  0
LINE
  5
A97
330
A02
100
AcDbEntity
  8
Sketch005
100
AcDbLine
 10
43.0698
 20
-31.6574
 30
0
 11
43.0698
 21
-33.3828
 31
0
  0
LINE
  5
A98
330
A02
100
AcDbEntity
  8
Sketch005
100
AcDbLine
 10
43.0698
 20
-33.3828
 30
0
 11
47.5408
 21
-33.3828
 31
0
  0
LINE
  5
A99
330
A02
100
AcDbEntity
  8
Sketch005
100
AcDbLine
 10
47.5408
 20
-33.3828
 30
0
 11
47.5408
 21
-34.9083
 31
0
  0
LINE
  5
A9A
330
A02
100
AcDbEntity
  8
Sketch005
100
AcDbLine
 10
47.5408
 20
-34.9083
 30
0
 11
42.8398
 21
-34.9083
 31
0
  0
LINE
  5
A9B
330
A02
100
AcDbEntity
  8
Sketch005
100
AcDbLine
 10
42.8398
 20
-34.9083
 30
0
 11
42.8398
 21
-48.9077
 31
0
  0
LINE
  5
A9C
330
A02
100
AcDbEntity
  8
Sketch005
100
AcDbLine
 10
42.8398
 20
-48.9077
 30
0
 11
47.5408
 21
-48.9077
 31
0
  0
LINE
  5
A9D
330
A02
100
AcDbEntity
  8
Sketch005
100
AcDbLine
 10
47.5408
 20
-48.9077
 30
0
 11
47.5408
 21
-50.4332
 31
0
  0
LINE
  5
A9E
330
A02
100
AcDbEntity
  8
Sketch005
100
AcDbLine
 10
47.5408
 20
-50.4332
 30
0
 11
43.0698
 21
-50.4332
 31
0
  0
LINE
  5
A9F
330
A02
100
AcDbEntity
  8
Sketch005
100
AcDbLine
 10
43.0698
 20
-50.4332
 30
0
 11
43.0698
 21
-52.1572
 31
0
  0
LINE
  5
AA0
330
A02
100
AcDbEntity
  8
Sketch005
100
AcDbLine
 10
43.0698
 20
-52.1572
 30
0
 11
41.8698
 21
-52.1572
 31
0
  0
LINE
  5
AA1
330
A02
100
AcDbEntity
  8
Sketch005
100
AcDbLine
 10
41.8698
 20
-52.1572
 30
0
 11
41.8698
 21
-55.4576
 31
0
  0
LINE
  5
AA2
330
A02
100
AcDbEntity
  8
Sketch005
100
AcDbLine
 10
41.8698
 20
-55.4576
 30
0
 11
43.0698
 21
-55.4576
 31
0
  0
LINE
  5
AA3
330
A02
100
AcDbEntity
  8
Sketch005
100
AcDbLine
 10
43.0698
 20
-55.4576
 30
0
 11
43.0698
 21
-57.1829
 31
0
  0
LINE
  5
AA4
330
A02
100
AcDbEntity
  8
Sketch005
100
AcDbLine
 10
43.0698
 20
-57.1829
 30
0
 11
49.3408
 21
-57.1829
 31
0
  0
LINE
  5
AA5
330
A02
100
AcDbEntity
  8
Sketch005
100
AcDbLine
 10
49.3408
 20
-57.1829
 30
0
 11
49.3408
 21
-58.0083
 31
0
  0
LINE
  5
AA6
330
A02
100
AcDbEntity
  8
Sketch005
100
AcDbLine
 10
49.3408
 20
-58.0083
 30
0
 11
52.1408
 21
-58.0083
 31
0
  0
LINE
  5
AA7
330
A02
100
AcDbEntity
  8
Sketch005
100
AcDbLine
 10
52.1408
 20
-58.0083
 30
0
 11
52.1408
 21
-57.1829
 31
0
  0
LINE
  5
AA8
330
A02
100
AcDbEntity
  8
Sketch005
100
AcDbLine
 10
52.1408
 20
-57.1829
 30
0
 11
55.3708
 21
-57.1829
 31
0
  0
LINE
  5
AA9
330
A02
100
AcDbEntity
  8
Sketch005
100
AcDbLine
 10
55.3708
 20
-57.1829
 30
0
 11
55.3708
 21
-50.4332
 31
0
  0
LINE
  5
AAA
330
A02
100
AcDbEntity
  8
Sketch005
100
AcDbLine
 10
55.3708
 20
-50.4332
 30
0
 11
52.1408
 21
-50.4332
 31
0
  0
LINE
  5
AAB
330
A02
100
AcDbEntity
  8
Sketch005
100
AcDbLine
 10
52.1408
 20
-50.4332
 30
0
 11
52.1408
 21
-48.9077
 31
0
  0
LINE
  5
AAC
330
A02
100
AcDbEntity
  8
Sketch005
100
AcDbLine
 10
52.1408
 20
-48.9077
 30
0
 11
56.8408
 21
-48.9077
 31
0
  0
LINE
  5
AAD
330
A02
100
AcDbEntity
  8
Sketch005
100
AcDbLine
 10
56.8408
 20
-48.9077
 30
0
 11
56.8408
 21
-34.9083
 31
0
  0
LINE
  5
AAE
330
A02
100
AcDbEntity
  8
Sketch005
100
AcDbLine
 10
56.8408
 20
-34.9083
 30
0
 11
52.1408
 21
-34.9083
 31
0
  0
LINE
  5
AAF
330
A02
100
AcDbEntity
  8
Sketch005
100
AcDbLine
 10
52.1408
 20
-34.9083
 30
0
 11
52.1408
 21
-33.3828
 31
0
  0
LINE
  5
AB0
330
A02
100
AcDbEntity
  8
Sketch005
100
AcDbLine
 10
52.1408
 20
-33.3828
 30
0
 11
55.3708
 21
-33.3828
 31
0
  0
LINE
  5
AB1
330
A02
100
AcDbEntity
  8
Sketch005
100
AcDbLine
 10
55.3708
 20
-33.3828
 30
0
 11
55.3708
 21
-26.6331
 31
0
  0
LINE
  5
AB2
330
A02
100
AcDbEntity
  8
Sketch005
100
AcDbLine
 10
55.3708
 20
-26.6331
 30
0
 11
52.1408
 21
-26.6331
 31
0
  0
LINE
  5
AB3
330
A02
100
AcDbEntity
  8
Sketch005
100
AcDbLine
 10
52.1408
 20
-26.6331
 30
0
 11
52.1408
 21
-25.8078
 31
0
  0
LINE
  5
AB4
330
A02
100
AcDbEntity
  8
Sketch005
100
AcDbLine
 10
52.1408
 20
-25.8078
 30
0
 11
49.3408
 21
-25.8078
 31
0
  0
LINE
  5
AB5
330
A02
100
AcDbEntity
  8
Sketch005
100
AcDbLine
 10
-57.1712
 20
-25.3834
 30
0
 11
-43.1717
 21
-25.3834
 31
0
  0
LINE
  5
AB6
330
A02
100
AcDbEntity
  8
Sketch005
100
AcDbLine
 10
-43.1717
 20
-25.3834
 30
0
 11
-43.1717
 21
-39.3827
 31
0
  0
LINE
  5
AB7
330
A02
100
AcDbEntity
  8
Sketch005
100
AcDbLine
 10
-43.1717
 20
-39.3827
 30
0
 11
-57.1712
 21
-39.3827
 31
0
  0
LINE
  5
AB8
330
A02
100
AcDbEntity
  8
Sketch005
100
AcDbLine
 10
-57.1712
 20
-39.3827
 30
0
 11
-57.1712
 21
-25.3834
 31
0
  0
LINE
  5
AB9
330
A02
100
AcDbEntity
  8
Sketch005
100
AcDbLine
 10
-38.1212
 20
-25.3834
 30
0
 11
-24.1218
 21
-25.3834
 31
0
  0
LINE
  5
ABA
330
A02
100
AcDbEntity
  8
Sketch005
100
AcDbLine
 10
-24.1218
 20
-25.3834
 30
0
 11
-24.1218
 21
-39.3827
 31
0
  0
LINE
  5
ABB
330
A02
100
AcDbEntity
  8
Sketch005
100
AcDbLine
 10
-24.1218
 20
-39.3827
 30
0
 11
-38.1212
 21
-39.3827
 31
0
  0
LINE
  5
ABC
330
A02
100
AcDbEntity
  8
Sketch005
100
AcDbLine
 10
-38.1212
 20
-39.3827
 30
0
 11
-38.1212
 21
-25.3834
 31
0
  0
LINE
  5
ABD
330
A02
100
AcDbEntity
  8
Sketch005
100
AcDbLine
 10
-14.31
 20
-25.3834
 30
0
 11
-0.309348
 21
-25.3834
 31
0
  0
LINE
  5
ABE
330
A02
100
AcDbEntity
  8
Sketch005
100
AcDbLine
 10
-0.309348
 20
-25.3834
 30
0
 11
-0.309348
 21
-39.3827
 31
0
  0
LINE
  5
ABF
330
A02
100
AcDbEntity
  8
Sketch005
100
AcDbLine
 10
-0.309348
 20
-39.3827
 30
0
 11
-14.31
 21
-39.3827
 31
0
  0
LINE
  5
AC0
330
A02
100
AcDbEntity
  8
Sketch005
100
AcDbLine
 10
-14.31
 20
-39.3827
 30
0
 11
-14.31
 21
-25.3834
 31
0
  0
LINE
  5
AC1
330
A02
100
AcDbEntity
  8
Sketch005
100
AcDbLine
 10
4.73995
 20
-25.3834
 30
0
 11
18.7407
 21
-25.3834
 31
0
  0
LINE
  5
AC2
330
A02
100
AcDbEntity
  8
Sketch005
100
AcDbLine
 10
18.7407
 20
-25.3834
 30
0
 11
18.7407
 21
-39.3827
 31
0
  0
LINE
  5
AC3
330
A02
100
AcDbEntity
  8
Sketch005
100
AcDbLine
 10
18.7407
 20
-39.3827
 30
0
 11
4.73995
 21
-39.3827
 31
0
  0
LINE
  5
AC4
330
A02
100
AcDbEntity
  8
Sketch005
100
AcDbLine
 10
4.73995
 20
-39.3827
 30
0
 11
4.73995
 21
-25.3834
 31
0
  0
LINE
  5
AC5
330
A02
100
AcDbEntity
  8
Sketch005
100
AcDbLine
 10
23.79
 20
-25.3834
 30
0
 11
37.7907
 21
-25.3834
 31
0
  0
LINE
  5
AC6
330
A02
100
AcDbEntity
  8
Sketch005
100
AcDbLine
 10
37.7907
 20
-25.3834
 30
0
 11
37.7907
 21
-39.3827
 31
0
  0
LINE
  5
AC7
330
A02
100
AcDbEntity
  8
Sketch005
100
AcDbLine
 10
37.7907
 20
-39.3827
 30
0
 11
23.79
 21
-39.3827
 31
0
  0
LINE
  5
AC8
330
A02
100
AcDbEntity
  8
Sketch005
100
AcDbLine
 10
23.79
 20
-39.3827
 30
0
 11
23.79
 21
-25.3834
 31
0
  0
LINE
  5
AC9
330
A02
100
AcDbEntity
  8
Sketch005
100
AcDbLine
 10
-57.1712
 20
-6.3334
 30
0
 11
-43.1717
 21
-6.3334
 31
0
  0
LINE
  5
ACA
330
A02
100
AcDbEntity
  8
Sketch005
100
AcDbLine
 10
-43.1717
 20
-6.3334
 30
0
 11
-43.1717
 21
-20.3326
 31
0
  0
LINE
  5
ACB
330
A02
100
AcDbEntity
  8
Sketch005
100
AcDbLine
 10
-43.1717
 20
-20.3326
 30
0
 11
-57.1712
 21
-20.3326
 31
0
  0
LINE
  5
ACC
330
A02
100
AcDbEntity
  8
Sketch005
100
AcDbLine
 10
-57.1712
 20
-20.3326
 30
0
 11
-57.1712
 21
-6.3334
 31
0
  0
LINE
  5
ACD
330
A02
100
AcDbEntity
  8
Sketch005
100
AcDbLine
 10
-38.1212
 20
-6.3334
 30
0
 11
-24.1218
 21
-6.3334
 31
0
  0
LINE
  5
ACE
330
A02
100
AcDbEntity
  8
Sketch005
100
AcDbLine
 10
-24.1218
 20
-6.3334
 30
0
 11
-24.1218
 21
-20.3326
 31
0
  0
LINE
  5
ACF
330
A02
100
AcDbEntity
  8
Sketch005
100
AcDbLine
 10
-24.1218
 20
-20.3326
 30
0
 11
-38.1212
 21
-20.3326
 31
0
  0
LINE
  5
AD0
330
A02
100
AcDbEntity
  8
Sketch005
100
AcDbLine
 10
-38.1212
 20
-20.3326
 30
0
 11
-38.1212
 21
-6.3334
 31
0
  0
LINE
  5
AD1
330
A02
100
AcDbEntity
  8
Sketch005
100
AcDbLine
 10
-14.31
 20
-6.3334
 30
0
 11
-0.309348
 21
-6.3334
 31
0
  0
LINE
  5
AD2
330
A02
100
AcDbEntity
  8
Sketch005
100
AcDbLine
 10
-0.309348
 20
-6.3334
 30
0
 11
-0.309348
 21
-20.3326
 31
0
  0
LINE
  5
AD3
330
A02
100
AcDbEntity
  8
Sketch005
100
AcDbLine
 10
-0.309348
 20
-20.3326
 30
0
 11
-14.31
 21
-20.3326
 31
0
  0
LINE
  5
AD4
330
A02
100
AcDbEntity
  8
Sketch005
100
AcDbLine
 10
-14.31
 20
-20.3326
 30
0
 11
-14.31
 21
-6.3334
 31
0
  0
LINE
  5
AD5
330
A02
100
AcDbEntity
  8
Sketch005
100
AcDbLine
 10
4.73995
 20
-6.3334
 30
0
 11
18.7407
 21
-6.3334
 31
0
  0
LINE
  5
AD6
330
A02
100
AcDbEntity
  8
Sketch005
100
AcDbLine
 10
18.7407
 20
-6.3334
 30
0
 11
18.7407
 21
-20.3326
 31
0
  0
LINE
  5
AD7
330
A02
100
AcDbEntity
  8
Sketch005
100
AcDbLine
 10
18.7407
 20
-20.3326
 30
0
 11
4.73995
 21
-20.3326
 31
0
  0
LINE
  5
AD8
330
A02
100
AcDbEntity
  8
Sketch005
100
AcDbLine
 10
4.73995
 20
-20.3326
 30
0
 11
4.73995
 21
-6.3334
 31
0
  0
LINE
  5
AD9
330
A02
100
AcDbEntity
  8
Sketch005
100
AcDbLine
 10
23.79
 20
-6.3334
 30
0
 11
37.7907
 21
-6.3334
 31
0
  0
LINE
  5
ADA
330
A02
100
AcDbEntity
  8
Sketch005
100
AcDbLine
 10
37.7907
 20
-6.3334
 30
0
 11
37.7907
 21
-20.3326
 31
0
  0
LINE
  5
ADB
330
A02
100
AcDbEntity
  8
Sketch005
100
AcDbLine
 10
37.7907
 20
-20.3326
 30
0
 11
23.79
 21
-20.3326
 31
0
  0
LINE
  5
ADC
330
A02
100
AcDbEntity
  8
Sketch005
100
AcDbLine
 10
23.79
 20
-20.3326
 30
0
 11
23.79
 21
-6.3334
 31
0
  0
LINE
  5
ADD
330
A02
100
AcDbEntity
  8
Sketch005
100
AcDbLine
 10
49.3408
 20
12.2922
 30
0
 11
49.3408
 21
11.4667
 31
0
  0
LINE
  5
ADE
330
A02
100
AcDbEntity
  8
Sketch005
100
AcDbLine
 10
49.3408
 20
11.4667
 30
0
 11
43.0698
 21
11.4667
 31
0
  0
LINE
  5
ADF
330
A02
100
AcDbEntity
  8
Sketch005
100
AcDbLine
 10
43.0698
 20
11.4667
 30
0
 11
43.0698
 21
9.7431
 31
0
  0
LINE
  5
AE0
330
A02
100
AcDbEntity
  8
Sketch005
100
AcDbLine
 10
43.0698
 20
9.7431
 30
0
 11
41.8698
 21
9.7431
 31
0
  0
LINE
  5
AE1
330
A02
100
AcDbEntity
  8
Sketch005
100
AcDbLine
 10
41.8698
 20
9.7431
 30
0
 11
41.8698
 21
6.4425
 31
0
  0
LINE
  5
AE2
330
A02
100
AcDbEntity
  8
Sketch005
100
AcDbLine
 10
41.8698
 20
6.4425
 30
0
 11
43.0698
 21
6.4425
 31
0
  0
LINE
  5
AE3
330
A02
100
AcDbEntity
  8
Sketch005
100
AcDbLine
 10
43.0698
 20
6.4425
 30
0
 11
43.0698
 21
4.7174
 31
0
  0
LINE
  5
AE4
330
A02
100
AcDbEntity
  8
Sketch005
100
AcDbLine
 10
43.0698
 20
4.7174
 30
0
 11
47.5408
 21
4.7174
 31
0
  0
LINE
  5
AE5
330
A02
100
AcDbEntity
  8
Sketch005
100
AcDbLine
 10
47.5408
 20
4.7174
 30
0
 11
47.5408
 21
3.1916
 31
0
  0
LINE
  5
AE6
330
A02
100
AcDbEntity
  8
Sketch005
100
AcDbLine
 10
47.5408
 20
3.1916
 30
0
 11
42.8398
 21
3.1916
 31
0
  0
LINE
  5
AE7
330
A02
100
AcDbEntity
  8
Sketch005
100
AcDbLine
 10
42.8398
 20
3.1916
 30
0
 11
42.8398
 21
-10.8076
 31
0
  0
LINE
  5
AE8
330
A02
100
AcDbEntity
  8
Sketch005
100
AcDbLine
 10
42.8398
 20
-10.8076
 30
0
 11
47.5408
 21
-10.8076
 31
0
  0
LINE
  5
AE9
330
A02
100
AcDbEntity
  8
Sketch005
100
AcDbLine
 10
47.5408
 20
-10.8076
 30
0
 11
47.5408
 21
-12.3331
 31
0
  0
LINE
  5
AEA
330
A02
100
AcDbEntity
  8
Sketch005
100
AcDbLine
 10
47.5408
 20
-12.3331
 30
0
 11
43.0698
 21
-12.3331
 31
0
  0
LINE
  5
AEB
330
A02
100
AcDbEntity
  8
Sketch005
100
AcDbLine
 10
43.0698
 20
-12.3331
 30
0
 11
43.0698
 21
-14.0571
 31
0
  0
LINE
  5
AEC
330
A02
100
AcDbEntity
  8
Sketch005
100
AcDbLine
 10
43.0698
 20
-14.0571
 30
0
 11
41.8698
 21
-14.0571
 31
0
  0
LINE
  5
AED
330
A02
100
AcDbEntity
  8
Sketch005
100
AcDbLine
 10
41.8698
 20
-14.0571
 30
0
 11
41.8698
 21
-17.3577
 31
0
  0
LINE
  5
AEE
330
A02
100
AcDbEntity
  8
Sketch005
100
AcDbLine
 10
41.8698
 20
-17.3577
 30
0
 11
43.0698
 21
-17.3577
 31
0
  0
LINE
  5
AEF
330
A02
100
AcDbEntity
  8
Sketch005
100
AcDbLine
 10
43.0698
 20
-17.3577
 30
0
 11
43.0698
 21
-19.0827
 31
0
  0
LINE
  5
AF0
330
A02
100
AcDbEntity
  8
Sketch005
100
AcDbLine
 10
43.0698
 20
-19.0827
 30
0
 11
49.3408
 21
-19.0827
 31
0
  0
LINE
  5
AF1
330
A02
100
AcDbEntity
  8
Sketch005
100
AcDbLine
 10
49.3408
 20
-19.0827
 30
0
 11
49.3408
 21
-19.9083
 31
0
  0
LINE
  5
AF2
330
A02
100
AcDbEntity
  8
Sketch005
100
AcDbLine
 10
49.3408
 20
-19.9083
 30
0
 11
52.1408
 21
-19.9083
 31
0
  0
LINE
  5
AF3
330
A02
100
AcDbEntity
  8
Sketch005
100
AcDbLine
 10
52.1408
 20
-19.9083
 30
0
 11
52.1408
 21
-19.0827
 31
0
  0
LINE
  5
AF4
330
A02
100
AcDbEntity
  8
Sketch005
100
AcDbLine
 10
52.1408
 20
-19.0827
 30
0
 11
55.3708
 21
-19.0827
 31
0
  0
LINE
  5
AF5
330
A02
100
AcDbEntity
  8
Sketch005
100
AcDbLine
 10
55.3708
 20
-19.0827
 30
0
 11
55.3708
 21
-12.3331
 31
0
  0
LINE
  5
AF6
330
A02
100
AcDbEntity
  8
Sketch005
100
AcDbLine
 10
55.3708
 20
-12.3331
 30
0
 11
52.1408
 21
-12.3331
 31
0
  0
LINE
  5
AF7
330
A02
100
AcDbEntity
  8
Sketch005
100
AcDbLine
 10
52.1408
 20
-12.3331
 30
0
 11
52.1408
 21
-10.8076
 31
0
  0
LINE
  5
AF8
330
A02
100
AcDbEntity
  8
Sketch005
100
AcDbLine
 10
52.1408
 20
-10.8076
 30
0
 11
56.8408
 21
-10.8076
 31
0
  0
LINE
  5
AF9
330
A02
100
AcDbEntity
  8
Sketch005
100
AcDbLine
 10
56.8408
 20
-10.8076
 30
0
 11
56.8408
 21
3.1916
 31
0
  0
LINE
  5
AFA
330
A02
100
AcDbEntity
  8
Sketch005
100
AcDbLine
 10
56.8408
 20
3.1916
 30
0
 11
52.1408
 21
3.1916
 31
0
  0
LINE
  5
AFB
330
A02
100
AcDbEntity
  8
Sketch005
100
AcDbLine
 10
52.1408
 20
3.1916
 30
0
 11
52.1408
 21
4.7174
 31
0
  0
LINE
  5
AFC
330
A02
100
AcDbEntity
  8
Sketch005
100
AcDbLine
 10
52.1408
 20
4.7174
 30
0
 11
55.3708
 21
4.7174
 31
0
  0
LINE
  5
AFD
330
A02
100
AcDbEntity
  8
Sketch005
100
AcDbLine
 10
55.3708
 20
4.7174
 30
0
 11
55.3708
 21
11.4667
 31
0
  0
LINE
  5
AFE
330
A02
100
AcDbEntity
  8
Sketch005
100
AcDbLine
 10
55.3708
 20
11.4667
 30
0
 11
52.1408
 21
11.4667
 31
0
  0
LINE
  5
AFF
330
A02
100
AcDbEntity
  8
Sketch005
100
AcDbLine
 10
52.1408
 20
11.4667
 30
0
 11
52.1408
 21
12.2922
 31
0
  0
LINE
  5
B00
330
A02
100
AcDbEntity
  8
Sketch005
100
AcDbLine
 10
52.1408
 20
12.2922
 30
0
 11
49.3408
 21
12.2922
 31
0
  0
LINE
  5
B01
330
A02
100
AcDbEntity
  8
Sketch005
100
AcDbLine
 10
-57.1712
 20
12.7166
 30
0
 11
-43.1717
 21
12.7166
 31
0
  0
LINE
  5
B02
330
A02
100
AcDbEntity
  8
Sketch005
100
AcDbLine
 10
-43.1717
 20
12.7166
 30
0
 11
-43.1717
 21
-1.2826
 31
0
  0
LINE
  5
B03
330
A02
100
AcDbEntity
  8
Sketch005
100
AcDbLine
 10
-43.1717
 20
-1.2826
 30
0
 11
-57.1712
 21
-1.2826
 31
0
  0
LINE
  5
B04
330
A02
100
AcDbEntity
  8
Sketch005
100
AcDbLine
 10
-57.1712
 20
-1.2826
 30
0
 11
-57.1712
 21
12.7166
 31
0
  0
LINE
  5
B05
330
A02
100
AcDbEntity
  8
Sketch005
100
AcDbLine
 10
-38.1212
 20
12.7166
 30
0
 11
-24.1218
 21
12.7166
 31
0
  0
LINE
  5
B06
330
A02
100
AcDbEntity
  8
Sketch005
100
AcDbLine
 10
-24.1218
 20
12.7166
 30
0
 11
-24.1218
 21
-1.2826
 31
0
  0
LINE
  5
B07
330
A02
100
AcDbEntity
  8
Sketch005
100
AcDbLine
 10
-24.1218
 20
-1.2826
 30
0
 11
-38.1212
 21
-1.2826
 31
0
  0
LINE
  5
B08
330
A02
100
AcDbEntity
  8
Sketch005
100
AcDbLine
 10
-38.1212
 20
-1.2826
 30
0
 11
-38.1212
 21
12.7166
 31
0
  0
LINE
  5
B09
330
A02
100
AcDbEntity
  8
Sketch005
100
AcDbLine
 10
-14.31
 20
12.7166
 30
0
 11
-0.309348
 21
12.7166
 31
0
  0
LINE
  5
B0A
330
A02
100
AcDbEntity
  8
Sketch005
100
AcDbLine
 10
-0.309348
 20
12.7166
 30
0
 11
-0.309348
 21
-1.2826
 31
0
  0
LINE
  5
B0B
330
A02
100
AcDbEntity
  8
Sketch005
100
AcDbLine
 10
-0.309348
 20
-1.2826
 30
0
 11
-14.31
 21
-1.2826
 31
0
  0
LINE
  5
B0C
330
A02
100
AcDbEntity
  8
Sketch005
100
AcDbLine
 10
-14.31
 20
-1.2826
 30
0
 11
-14.31
 21
12.7166
 31
0
  0
LINE
  5
B0D
330
A02
100
AcDbEntity
  8
Sketch005
100
AcDbLine
 10
4.73995
 20
12.7166
 30
0
 11
18.7407
 21
12.7166
 31
0
  0
LINE
  5
B0E
330
A02
100
AcDbEntity
  8
Sketch005
100
AcDbLine
 10
18.7407
 20
12.7166
 30
0
 11
18.7407
 21
-1.2826
 31
0
  0
LINE
  5
B0F
330
A02
100
AcDbEntity
  8
Sketch005
100
AcDbLine
 10
18.7407
 20
-1.2826
 30
0
 11
4.73995
 21
-1.2826
 31
0
  0
LINE
  5
B10
330
A02
100
AcDbEntity
  8
Sketch005
100
AcDbLine
 10
4.73995
 20
-1.2826
 30
0
 11
4.73995
 21
12.7166
 31
0
  0
LINE
  5
B11
330
A02
100
AcDbEntity
  8
Sketch005
100
AcDbLine
 10
23.79
 20
12.7166
 30
0
 11
37.7907
 21
12.7166
 31
0
  0
LINE
  5
B12
330
A02
100
AcDbEntity
  8
Sketch005
100
AcDbLine
 10
37.7907
 20
12.7166
 30
0
 11
37.7907
 21
-1.2826
 31
0
  0
LINE
  5
B13
330
A02
100
AcDbEntity
  8
Sketch005
100
AcDbLine
 10
37.7907
 20
-1.2826
 30
0
 11
23.79
 21
-1.2826
 31
0
  0
LINE
  5
B14
330
A02
100
AcDbEntity
  8
Sketch005
100
AcDbLine
 10
23.79
 20
-1.2826
 30
0
 11
23.79
 21
12.7166
 31
0
  0
LINE
  5
B15
330
A02
100
AcDbEntity
  8
Sketch005
100
AcDbLine
 10
-57.1712
 20
31.7666
 30
0
 11
-43.1717
 21
31.7666
 31
0
  0
LINE
  5
B16
330
A02
100
AcDbEntity
  8
Sketch005
100
AcDbLine
 10
-43.1717
 20
31.7666
 30
0
 11
-43.1717
 21
17.7674
 31
0
  0
LINE
  5
B17
330
A02
100
AcDbEntity
  8
Sketch005
100
AcDbLine
 10
-43.1717
 20
17.7674
 30
0
 11
-57.1712
 21
17.7674
 31
0
  0
LINE
  5
B18
330
A02
100
AcDbEntity
  8
Sketch005
100
AcDbLine
 10
-57.1712
 20
17.7674
 30
0
 11
-57.1712
 21
31.7666
 31
0
  0
LINE
  5
B19
330
A02
100
AcDbEntity
  8
Sketch005
100
AcDbLine
 10
-38.1212
 20
31.7666
 30
0
 11
-24.1218
 21
31.7666
 31
0
  0
LINE
  5
B1A
330
A02
100
AcDbEntity
  8
Sketch005
100
AcDbLine
 10
-24.1218
 20
31.7666
 30
0
 11
-24.1218
 21
17.7674
 31
0
  0
LINE
  5
B1B
330
A02
100
AcDbEntity
  8
Sketch005
100
AcDbLine
 10
-24.1218
 20
17.7674
 30
0
 11
-38.1212
 21
17.7674
 31
0
  0
LINE
  5
B1C
330
A02
100
AcDbEntity
  8
Sketch005
100
AcDbLine
 10
-38.1212
 20
17.7674
 30
0
 11
-38.1212
 21
31.7666
 31
0
  0
LINE
  5
B1D
330
A02
100
AcDbEntity
  8
Sketch005
100
AcDbLine
 10
-14.31
 20
31.7666
 30
0
 11
-0.309348
 21
31.7666
 31
0
  0
LINE
  5
B1E
330
A02
100
AcDbEntity
  8
Sketch005
100
AcDbLine
 10
-0.309348
 20
31.7666
 30
0
 11
-0.309348
 21
17.7674
 31
0
  0
LINE
  5
B1F
330
A02
100
AcDbEntity
  8
Sketch005
100
AcDbLine
 10
-0.309348
 20
17.7674
 30
0
 11
-14.31
 21
17.7674
 31
0
  0
LINE
  5
B20
330
A02
100
AcDbEntity
  8
Sketch005
100
AcDbLine
 10
-14.31
 20
17.7674
 30
0
 11
-14.31
 21
31.7666
 31
0
  0
LINE
  5
B21
330
A02
100
AcDbEntity
  8
Sketch005
100
AcDbLine
 10
4.73995
 20
31.7666
 30
0
 11
18.7407
 21
31.7666
 31
0
  0
LINE
  5
B22
330
A02
100
AcDbEntity
  8
Sketch005
100
AcDbLine
 10
18.7407
 20
31.7666
 30
0
 11
18.7407
 21
17.7674
 31
0
  0
LINE
  5
B23
330
A02
100
AcDbEntity
  8
Sketch005
100
AcDbLine
 10
18.7407
 20
17.7674
 30
0
 11
4.73995
 21
17.7674
 31
0
  0
LINE
  5
B24
330
A02
100
AcDbEntity
  8
Sketch005
100
AcDbLine
 10
4.73995
 20
17.7674
 30
0
 11
4.73995
 21
31.7666
 31
0
  0
LINE
  5
B25
330
A02
100
AcDbEntity
  8
Sketch005
100
AcDbLine
 10
23.79
 20
31.7666
 30
0
 11
37.7907
 21
31.7666
 31
0
  0
LINE
  5
B26
330
A02
100
AcDbEntity
  8
Sketch005
100
AcDbLine
 10
37.7907
 20
31.7666
 30
0
 11
37.7907
 21
17.7674
 31
0
  0
LINE
  5
B27
330
A02
100
AcDbEntity
  8
Sketch005
100
AcDbLine
 10
37.7907
 20
17.7674
 30
0
 11
23.79
 21
17.7674
 31
0
  0
LINE
  5
B28
330
A02
100
AcDbEntity
  8
Sketch005
100
AcDbLine
 10
23.79
 20
17.7674
 30
0
 11
23.79
 21
31.7666
 31
0
  0
LINE
  5
B29
330
A02
100
AcDbEntity
  8
Sketch005
100
AcDbLine
 10
42.8398
 20
31.7666
 30
0
 11
56.8408
 21
31.7666
 31
0
  0
LINE
  5
B2A
330
A02
100
AcDbEntity
  8
Sketch005
100
AcDbLine
 10
56.8408
 20
31.7666
 30
0
 11
56.8408
 21
17.7674
 31
0
  0
LINE
  5
B2B
330
A02
100
AcDbEntity
  8
Sketch005
100
AcDbLine
 10
56.8408
 20
17.7674
 30
0
 11
42.8398
 21
17.7674
 31
0
  0
LINE
  5
B2C
330
A02
100
AcDbEntity
  8
Sketch005
100
AcDbLine
 10
42.8398
 20
17.7674
 30
0
 11
42.8398
 21
31.7666
 31
0
  0
LINE
  5
B2D
330
A02
100
AcDbEntity
  8
Sketch005
100
AcDbLine
 10
-47.6462
 20
60.342
 30
0
 11
-47.6462
 21
55.643
 31
0
  0
LINE
  5
B2E
330
A02
100
AcDbEntity
  8
Sketch005
100
AcDbLine
 10
-47.6462
 20
55.643
 30
0
 11
-49.1716
 21
55.643
 31
0
  0
LINE
  5
B2F
330
A02
100
AcDbEntity
  8
Sketch005
100
AcDbLine
 10
-49.1716
 20
55.643
 30
0
 11
-49.1716
 21
58.873
 31
0
  0
LINE
  5
B30
330
A02
100
AcDbEntity
  8
Sketch005
100
AcDbLine
 10
-49.1716
 20
58.873
 30
0
 11
-55.9213
 21
58.873
 31
0
  0
LINE
  5
B31
330
A02
100
AcDbEntity
  8
Sketch005
100
AcDbLine
 10
-55.9213
 20
58.873
 30
0
 11
-55.9213
 21
55.643
 31
0
  0
LINE
  5
B32
330
A02
100
AcDbEntity
  8
Sketch005
100
AcDbLine
 10
-55.9213
 20
55.643
 30
0
 11
-56.7482
 21
55.643
 31
0
  0
LINE
  5
B33
330
A02
100
AcDbEntity
  8
Sketch005
100
AcDbLine
 10
-56.7482
 20
55.643
 30
0
 11
-56.7482
 21
52.843
 31
0
  0
LINE
  5
B34
330
A02
100
AcDbEntity
  8
Sketch005
100
AcDbLine
 10
-56.7482
 20
52.843
 30
0
 11
-55.9213
 21
52.843
 31
0
  0
LINE
  5
B35
330
A02
100
AcDbEntity
  8
Sketch005
100
AcDbLine
 10
-55.9213
 20
52.843
 30
0
 11
-55.9213
 21
46.572
 31
0
  0
LINE
  5
B36
330
A02
100
AcDbEntity
  8
Sketch005
100
AcDbLine
 10
-55.9213
 20
46.572
 30
0
 11
-54.1974
 21
46.572
 31
0
  0
LINE
  5
B37
330
A02
100
AcDbEntity
  8
Sketch005
100
AcDbLine
 10
-54.1974
 20
46.572
 30
0
 11
-54.1974
 21
45.372
 31
0
  0
LINE
  5
B38
330
A02
100
AcDbEntity
  8
Sketch005
100
AcDbLine
 10
-54.1974
 20
45.372
 30
0
 11
-50.897
 21
45.372
 31
0
  0
LINE
  5
B39
330
A02
100
AcDbEntity
  8
Sketch005
100
AcDbLine
 10
-50.897
 20
45.372
 30
0
 11
-50.897
 21
46.572
 31
0
  0
LINE
  5
B3A
330
A02
100
AcDbEntity
  8
Sketch005
100
AcDbLine
 10
-50.897
 20
46.572
 30
0
 11
-49.1716
 21
46.572
 31
0
  0
LINE
  5
B3B
330
A02
100
AcDbEntity
  8
Sketch005
100
AcDbLine
 10
-49.1716
 20
46.572
 30
0
 11
-49.1716
 21
51.043
 31
0
  0
LINE
  5
B3C
330
A02
100
AcDbEntity
  8
Sketch005
100
AcDbLine
 10
-49.1716
 20
51.043
 30
0
 11
-47.6462
 21
51.043
 31
0
  0
LINE
  5
B3D
330
A02
100
AcDbEntity
  8
Sketch005
100
AcDbLine
 10
-47.6462
 20
51.043
 30
0
 11
-47.6462
 21
46.342
 31
0
  0
LINE
  5
B3E
330
A02
100
AcDbEntity
  8
Sketch005
100
AcDbLine
 10
-47.6462
 20
46.342
 30
0
 11
-33.6467
 21
46.342
 31
0
  0
LINE
  5
B3F
330
A02
100
AcDbEntity
  8
Sketch005
100
AcDbLine
 10
-33.6467
 20
46.342
 30
0
 11
-33.6467
 21
51.043
 31
0
  0
LINE
  5
B40
330
A02
100
AcDbEntity
  8
Sketch005
100
AcDbLine
 10
-33.6467
 20
51.043
 30
0
 11
-32.1212
 21
51.043
 31
0
  0
LINE
  5
B41
330
A02
100
AcDbEntity
  8
Sketch005
100
AcDbLine
 10
-32.1212
 20
51.043
 30
0
 11
-32.1212
 21
46.572
 31
0
  0
LINE
  5
B42
330
A02
100
AcDbEntity
  8
Sketch005
100
AcDbLine
 10
-32.1212
 20
46.572
 30
0
 11
-30.3973
 21
46.572
 31
0
  0
LINE
  5
B43
330
A02
100
AcDbEntity
  8
Sketch005
100
AcDbLine
 10
-30.3973
 20
46.572
 30
0
 11
-30.3973
 21
45.372
 31
0
  0
LINE
  5
B44
330
A02
100
AcDbEntity
  8
Sketch005
100
AcDbLine
 10
-30.3973
 20
45.372
 30
0
 11
-27.0969
 21
45.372
 31
0
  0
LINE
  5
B45
330
A02
100
AcDbEntity
  8
Sketch005
100
AcDbLine
 10
-27.0969
 20
45.372
 30
0
 11
-27.0969
 21
46.572
 31
0
  0
LINE
  5
B46
330
A02
100
AcDbEntity
  8
Sketch005
100
AcDbLine
 10
-27.0969
 20
46.572
 30
0
 11
-25.3716
 21
46.572
 31
0
  0
LINE
  5
B47
330
A02
100
AcDbEntity
  8
Sketch005
100
AcDbLine
 10
-25.3716
 20
46.572
 30
0
 11
-25.3716
 21
52.843
 31
0
  0
LINE
  5
B48
330
A02
100
AcDbEntity
  8
Sketch005
100
AcDbLine
 10
-25.3716
 20
52.843
 30
0
 11
-24.5461
 21
52.843
 31
0
  0
LINE
  5
B49
330
A02
100
AcDbEntity
  8
Sketch005
100
AcDbLine
 10
-24.5461
 20
52.843
 30
0
 11
-24.5461
 21
55.643
 31
0
  0
LINE
  5
B4A
330
A02
100
AcDbEntity
  8
Sketch005
100
AcDbLine
 10
-24.5461
 20
55.643
 30
0
 11
-25.3716
 21
55.643
 31
0
  0
LINE
  5
B4B
330
A02
100
AcDbEntity
  8
Sketch005
100
AcDbLine
 10
-25.3716
 20
55.643
 30
0
 11
-25.3716
 21
58.873
 31
0
  0
LINE
  5
B4C
330
A02
100
AcDbEntity
  8
Sketch005
100
AcDbLine
 10
-25.3716
 20
58.873
 30
0
 11
-32.1212
 21
58.873
 31
0
  0
LINE
  5
B4D
330
A02
100
AcDbEntity
  8
Sketch005
100
AcDbLine
 10
-32.1212
 20
58.873
 30
0
 11
-32.1212
 21
55.643
 31
0
  0
LINE
  5
B4E
330
A02
100
AcDbEntity
  8
Sketch005
100
AcDbLine
 10
-32.1212
 20
55.643
 30
0
 11
-33.6467
 21
55.643
 31
0
  0
LINE
  5
B4F
330
A02
100
AcDbEntity
  8
Sketch005
100
AcDbLine
 10
-33.6467
 20
55.643
 30
0
 11
-33.6467
 21
60.342
 31
0
  0
LINE
  5
B50
330
A02
100
AcDbEntity
  8
Sketch005
100
AcDbLine
 10
-33.6467
 20
60.342
 30
0
 11
-47.6462
 21
60.342
 31
0
  0
LINE
  5
B51
330
A02
100
AcDbEntity
  8
Sketch005
100
AcDbLine
 10
-14.31
 20
60.342
 30
0
 11
-0.309348
 21
60.342
 31
0
  0
LINE
  5
B52
330
A02
100
AcDbEntity
  8
Sketch005
100
AcDbLine
 10
-0.309348
 20
60.342
 30
0
 11
-0.309348
 21
46.342
 31
0
  0
LINE
  5
B53
330
A02
100
AcDbEntity
  8
Sketch005
100
AcDbLine
 10
-0.309348
 20
46.342
 30
0
 11
-14.31
 21
46.342
 31
0
  0
LINE
  5
B54
330
A02
100
AcDbEntity
  8
Sketch005
100
AcDbLine
 10
-14.31
 20
46.342
 30
0
 11
-14.31
 21
60.342
 31
0
  0
LINE
  5
B55
330
A02
100
AcDbEntity
  8
Sketch005
100
AcDbLine
 10
4.73995
 20
60.342
 30
0
 11
18.7407
 21
60.342
 31
0
  0
LINE
  5
B56
330
A02
100
AcDbEntity
  8
Sketch005
100
AcDbLine
 10
18.7407
 20
60.342
 30
0
 11
18.7407
 21
46.342
 31
0
  0
LINE
  5
B57
330
A02
100
AcDbEntity
  8
Sketch005
100
AcDbLine
 10
18.7407
 20
46.342
 30
0
 11
4.73995
 21
46.342
 31
0
  0
LINE
  5
B58
330
A02
100
AcDbEntity
  8
Sketch005
100
AcDbLine
 10
4.73995
 20
46.342
 30
0
 11
4.73995
 21
60.342
 31
0
  0
LINE
  5
B59
330
A02
100
AcDbEntity
  8
Sketch005
100
AcDbLine
 10
23.79
 20
60.342
 30
0
 11
37.7907
 21
60.342
 31
0
  0
LINE
  5
B5A
330
A02
100
AcDbEntity
  8
Sketch005
100
AcDbLine
 10
37.7907
 20
60.342
 30
0
 11
37.7907
 21
46.342
 31
0
  0
LINE
  5
B5B
330
A02
100
AcDbEntity
  8
Sketch005
100
AcDbLine
 10
37.7907
 20
46.342
 30
0
 11
23.79
 21
46.342
 31
0
  0
LINE
  5
B5C
330
A02
100
AcDbEntity
  8
Sketch005
100
AcDbLine
 10
23.79
 20
46.342
 30
0
 11
23.79
 21
60.342
 31
0
  0
LINE
  5
B5D
330
A02
100
AcDbEntity
  8
Sketch005
100
AcDbLine
 10
42.8398
 20
60.342
 30
0
 11
56.8408
 21
60.342
 31
0
  0
LINE
  5
B5E
330
A02
100
AcDbEntity
  8
Sketch005
100
AcDbLine
 10
56.8408
 20
60.342
 30
0
 11
56.8408
 21
46.342
 31
0
  0
LINE
  5
B5F
330
A02
100
AcDbEntity
  8
Sketch005
100
AcDbLine
 10
56.8408
 20
46.342
 30
0
 11
42.8398
 21
46.342
 31
0
  0
LINE
  5
B60
330
A02
100
AcDbEntity
  8
Sketch005
100
AcDbLine
 10
42.8398
 20
46.342
 30
0
 11
42.8398
 21
60.342
 31
0
  0
ENDSEC
  0
SECTION
  2
OBJECTS
  0
DICTIONARY
  5
F000
330
0
100
AcDbDictionary
  3
ACAD_GROUP
350
F001
  0
DICTIONARY
  5
F001
330
F000
100
AcDbDictionary
  0
ENDSEC
  0
EOF